<svg version="1.2" xmlns="http://www.w3.org/2000/svg" viewBox="0 0 652 652" width="652" height="652">
	<title>caixa-logo-svg</title>
	<style>
		.s0 { fill: #ffffff } 
	</style>
	<g id="Layer">
		<path id="Layer" class="s0" d="m64.9 327.5c1.4 1 1.3 3 2.6 3.9l0.6 4.3-3.1 4.6c-4 2.1-10 3-13.7-0.4-2.1-1.9-2.7-4.6-2.1-7.4l1.5-4c0.8-0.6 2-0.7 2.5-1.7 2-1.3 4.5-1 6.7-1.5 1.7 0.8 4.2-0.1 5 2.2z"/>
		<path id="Layer" class="s0" d="m54.5 353.1c1.3 0 2.2 0.9 3.4 0.7 1.7 0.6 1.5 2.7 3.2 3.2 1.3 2.6 2.2 5.5 2.9 8.4-0.5 1.7 0.9 2.7 0.4 4.2l0.5 0.3c0.1 1.6-0.1 3.4-0.8 5 0.3 2.9-1.2 5.4-2.5 7.9-0.9 0.6-1.3 2.2-2.6 1.9-2.2 0.7-2.5 4.1-5.2 3.6-1.7 1.3-4.1 0.6-6.2 0.6-1.2-0.6-2.9-0.5-3.7-1.5-2.1-0.9-4-2.4-5.8-3.9-0.7-1.6-2.3-2.3-2.5-4 0.6-2.1-0.7-4-0.1-6.1l-0.4-3.5 1.3-6c2.2-1.2 1.6-3.9 3.8-4.8 1.4-3.2 4.8-3.9 7.4-5.5 1-0.2 2.2 0.3 2.9-0.6 1.4-0.3 2.8 1.2 4 0.1z"/>
		<path id="Layer" class="s0" d="m168.8 256.2c-0.6 9.9-8.7 16.5-13 24.9-1.8 5-6.2 7.9-9.2 12.4-2.8 2.9-5.5 6-7.8 9.3 0.4 2.3 2.9 2.9 4.3 4.6 3.1 1.9 3.5 5.5 6.2 7.6 1.6 0 1.6 2.4 3.4 2.1 3.7 4 6.7 8.1 9.8 12.5 0.5 1.5 1.3 3.1 2.6 4.2 2.5 3.6 4.5 7.4 7 11 0.3 4.1 3.8 6.8 4.8 10.6 1.5 2 2.2 4.4 3.6 6.4 2.2 4.8 3.6 9.7 6.2 14.3 0.5 1.1-0.1 2.1-0.7 2.9-1 0.8-1.8-0.6-2.9-0.4-5.7-2.1-11.2-5.1-16.5-8.3-5.5-4.4-11.5-7.6-16.9-12.2-2.1-0.6-2.9-3-4.9-4-5.2-3.2-9.3-7.8-14.6-10.9-2.4-1.8-4.7-3.6-7.1-5.5-1.8-0.2-2.4-2.3-4.2-2.9-3.9-2.4-7.5-5.7-11.5-7.9l-0.3 1.9c-2.7 2.6-2 6.6-3.9 9.5-0.1 4.1-2.9 7.1-4.1 10.8-3.3 5.9-6.2 11.9-9.6 17.7-4.6 6-7 13.3-13.4 18.1-1.4 1.8-3 2.7-4.8 3.8-0.8-0.2-1.9-0.1-2.1-1-0.8-1.5 0.2-3.7-0.8-5 0.9-2 0.3-4.3 0.8-6.6l-0.3-1c0.1-3.1 1.6-5.7 1-8.8 0.8-2 1.2-4.1 1.4-6.3 1-2.7 1.8-5.5 2.1-8.4 0.9-1.7 1.3-3.8 1.1-5.8 0.7-1.8 0.8-4 2.7-5.3 0.3-1.2 0-2.4 0.2-3.6 1.9-5.8 4.2-11.3 5.7-17.2l-0.7-0.6c-4.1-0.2-8 0.6-11.8-0.4-6.3-0.1-12.7-0.9-18.7-2.2-2.5-0.5-5.4-0.2-7.6-1.6-1.5 0.1-3.1 0.3-4.6-0.4-2.9-1.4-6.4-1.2-9.2-2.7-2.2 0.3-3.7-1.1-5.7-1.3-1.9 0.1-2.9-1.5-4.3-2.5v-0.6c3.5-4.8 9.1-6.1 14.1-7.9 5-1.5 10.5-1.7 15.7-2.7 3.3-0.5 6.9 0.4 10.1-0.2 5.9 0.1 11.7 1.1 17.6 1.3 2 0.3 3.8 1.2 5.7 1.1l-0.1-0.8-5.5-7.6c-2.1-4.9-5.9-9-7.3-14.2-1.3-1.5-0.1-3.9-1-5.5-0.1-0.8 0.6-1.3 0.9-1.9 1.2-0.5 2.5 0.3 3.7-0.4 3.6 0.8 6.9 2.1 10.4 2.8 3.7 1.5 7.5 2.9 10.8 5.4 4.1 2.9 9.1 4.8 12.3 9.4 0.8 0.8 2.2 0.9 3.3 0.6 1-0.1 1.2-1.3 2.1-1.7 4.3-2.7 9.2-4.3 13.5-7.3 1.8-1.8 4.6-2 5.6-4.3 1.3-0.6 2.5-1.5 3.9-1.8 2.5-1.7 4.9-3.6 7.6-5 1.4-0.1 2.5-0.9 3.6-1.7 4.3-2.4 8.9-4.3 13-7.1 0.9-2.4 3.7-1.9 5.6-2.4 0.9-0.4 2.2-0.6 2.7 0.7z"/>
		<path id="Layer" fill-rule="evenodd" class="s0" d="m496.7 314.9h-2.4v-9.3c4.1-1.2 8-1.8 12.6-1.8 8.7 0 16.1 2.4 16.1 12.1 0 3.5-0.3 8.6-0.4 14.1v3.3c0 4.4 0.8 5.7 2.9 5.7 0.4 0 1.3-0.2 2-0.4l1.4 1.5-7.3 5.9c-3.7-0.5-6.6-2.4-7.8-4.8-3.3 2.5-6.4 4.8-10.7 4.8-6.6 0-13.1-4.1-13.1-11.3 0-10.3 9.8-14.3 18.7-14.3 1.6 0 3.3 0.3 4.6 0.3 0-5.2-0.4-11.1-7-11.1-4.7 0-7.2 1.6-9.6 5.2zm16.8 9.3c-1.1-0.2-2.9-0.5-4.7-0.5-4.5 0-9.2 2.4-9.2 8.6 0 4.5 3.5 7.9 7.6 7.9 3 0 5-0.6 6.5-1.6z"/>
		<path id="Layer" class="s0" d="m280 290.2h-4.2c-3.1-9.4-12.9-13.1-21.5-13.1-17.4 0-24.6 14-24.6 30.8 0 28.2 20.4 33 28.7 33 8.1 0 15.4-3.5 19.8-10.5l3.1 1.3-3.1 11.1c-8 1.5-13 2.3-19.5 2.3-29.8 0-42.9-18.4-42.9-36.4 0-20.6 15.9-35.8 38.3-35.8 13 0 18 2.2 25.1 4z"/>
		<path id="Layer" fill-rule="evenodd" class="s0" d="m291.4 305.5c4.1-1.2 8-1.8 12.6-1.8 8.7 0 16.1 2.3 16.1 12.1 0 3.5-0.3 8.6-0.4 14.1v3.4c0 4.5 0.8 5.8 2.9 5.8 0.5 0 1.4-0.2 2.1-0.4l1.5 1.5-7.3 5.9c-3.7-0.5-6.7-2.3-7.8-4.8-3.3 2.5-6.4 4.8-10.7 4.8-6.6 0-13.2-4.1-13.2-11.3 0-10.3 9.9-14.3 18.7-14.3 1.6 0 3.2 0.3 4.6 0.3 0-5.3-0.4-11.1-7-11.1-4.8 0-7.2 1.6-9.7 5.2h-2.4zm19 18.7c-1.1-0.2-2.9-0.5-4.7-0.5-4.5 0-9.2 2.3-9.2 8.6 0 4.5 3.5 7.9 7.6 7.9 3 0 5-0.7 6.6-1.7z"/>
		<path id="Layer" class="s0" d="m342 303.8c0 4.1 0.4 12.7 0.4 20.7v14.2c0 3.3 1.6 3.8 3.8 4.4v2c-2.9 0-5.9-0.3-8.8-0.3-2.6 0-5.3 0.2-7.9 0.3v-2c2.3-0.6 3.4-1.1 3.4-4.4v-12.1c0-7-0.6-11-1.4-13-0.8-1.9-1.8-2.6-4.1-3v-1.9c4.5-1.1 9.7-2.9 12.6-4.9zm-4.8-16.5c2.8 0 5.4 2.1 5.4 5 0 2.9-2.5 5-5.4 5-2.8 0-5.4-2-5.4-5 0.1-2.9 2.6-5 5.4-5z"/>
		<path id="Layer" class="s0" d="m351.1 343.2c3.1-0.5 5.2-2.9 6.5-4.6l9.5-12.1-11.2-15.2c-1.9-2.4-2.5-3.1-5.4-4.4v-2c2.9 0.1 6 0.3 8.9 0.3 2.9 0 5.9-0.2 8.8-0.3v2c-1.2 0.6-2.1 0.8-2.1 2.2 0 0.7 0.3 2 1.2 3.1l5.4 7.3 4.8-6.3c1-1.4 1.5-2.5 1.5-3.2 0-1.8-1.2-2.5-2.7-3.1v-2c2.6 0.1 5.2 0.3 7.8 0.3 2.5 0 5.2-0.2 7.7-0.3v2c-3.8 0.9-5.9 3.2-8 5.9l-8.3 10.6 10.5 14.6c1.5 1.9 3.7 4.4 6.2 5.2v2c-3-0.1-5.8-0.3-8.7-0.3-2.9 0-5.8 0.2-8.7 0.3v-2c1.1-0.1 2-1.2 2-2.1 0-0.6-0.8-2.1-1.6-3.3l-5.3-7.5-5.3 7.1c-0.6 0.9-1.4 2.8-1.4 3.6 0 1.6 0.8 2 2.1 2.2v2c-2.5-0.1-5.2-0.3-7.7-0.3-2.1 0-4.2 0.2-6.3 0.3v-2z"/>
		<path id="Layer" fill-rule="evenodd" class="s0" d="m398.9 305.5c4.1-1.2 8-1.8 12.6-1.8 8.7 0 16.1 2.3 16.1 12.1 0 3.5-0.3 8.6-0.4 14.1v3.4c0 4.5 0.8 5.8 2.9 5.8 0.5 0 1.4-0.2 2-0.4l1.5 1.5-7.3 5.9c-3.7-0.5-6.6-2.3-7.8-4.8-3.3 2.5-6.4 4.8-10.7 4.8-6.6 0-13.2-4.1-13.2-11.3 0-10.3 9.9-14.3 18.7-14.3 1.6 0 3.2 0.3 4.6 0.3 0-5.3-0.4-11.1-7-11.1-4.8 0-7.2 1.6-9.7 5.2h-2.3zm19.1 18.7c-1.1-0.2-2.9-0.5-4.7-0.5-4.5 0-9.2 2.3-9.2 8.6 0 4.5 3.5 7.9 7.6 7.9 3 0 5-0.7 6.6-1.7z"/>
		<path id="Layer" fill-rule="evenodd" class="s0" d="m442.4 336.9v-19.8c0-11.7-0.3-24.1-0.3-32.9 0-3.7-1.6-4.6-4.2-5v-2.1c4.9 0 8.9 0.4 12.8 0.4 4.3 0 6.6-0.4 8.9-0.4 10.9 0 24 4.7 24 17.4 0 8.3-6.8 13.7-14.1 16v0.2c9.2 2.5 15.3 7.7 15.3 17.8 0 12.6-12.6 16.7-23.2 16.7-1.3 0-2.6-0.1-4-0.2-1.3-0.1-2.6-0.2-4-0.2h-16.8v-1.8c4.2-0.5 5.5-1.9 5.5-6.1zm10.4-28.4c1.8 0.1 3.1 0.2 4.4 0.2 8.7 0 14.5-5.3 14.5-13.8 0-8.5-4-14.2-14.5-14.2-2.7 0-3.9 0.1-3.9 1.9zm0.1 4.2v22.8c0 5.2 0.7 6.2 6.7 6.2 8.3 0 13.3-6.1 13.3-13.6 0-8.9-5.4-15.5-14.8-15.5-1.7 0-3.3 0.1-5.3 0.1z"/>
		<path id="Layer" class="s0" d="m530.7 309.8c5.8-1.1 9.3-2.6 13-4.9h2c-0.1 1.7-0.1 3.2-0.2 4.9 3.4-2.3 7.8-4.7 11.9-4.7 9.6 0 13.4 5.7 13.4 14v20.7c0 3.1 0.8 3.8 3.5 4.6v1.9c-2.4-0.1-4.8-0.3-7.2-0.3-3.1 0-6.1 0.3-9.2 0.3v-1.9c2.7-0.6 3.5-1.3 3.5-4.6v-16.9c0-5.3-1.1-12.5-8-12.5-2 0-8.2 1-8.2 4.6 0 3.7-0.2 9.2-0.2 16.8v8c0 3.5 1 4.3 3.6 4.6v1.9c-2.8-0.1-5.6-0.3-8.4-0.3-2.7 0-5.6 0.3-8.3 0.3v-1.9c2.4-0.9 3.6-1.3 3.6-4.6v-9.6c0-5.6-0.5-10.9-0.5-14 0-2.8-1.4-4.5-4.3-4.5z"/>
		<path id="Layer" class="s0" d="m620.2 344.2v2c-2.8-0.1-5.7-0.3-8.5-0.3-3.3 0-6.6 0.3-9.9 0.3v-2c0.9 0 1.6-0.8 1.6-1.8 0-1.1-1.1-3.4-2.8-5.2l-10-11h-0.2v13.3c0 2.9 0.9 4.1 3.3 4.6v2c-2.9 0-5.8-0.3-8.7-0.3q-3.9 0-7.8 0.3v-2c2.9-0.5 3.7-2.3 3.7-4.4v-31.6c0-5.7-0.5-13-0.8-16.7-0.2-4-2.5-6.3-4.9-6.3v-2.2c4.9-1.2 9.5-3.3 13-5.9h2.1v45.8l8-7.9c2-2.1 2.5-3.5 2.5-4.6 0-0.9-0.9-2.1-1.8-2.5v-2c2.6 0.2 5.4 0.3 8 0.3 2.5 0 4.9-0.1 7.3-0.3v2c-3.5 1-6.7 3.3-9.1 5.7l-7.5 7.9 14.7 17.3c1.3 1.5 4.8 4.6 7.7 5.5z"/>
		<path id="Layer" class="s0" d="m620.2 364.9v0.8 0.8 0.8h-402.8v-0.8-0.8-0.8z"/>
	</g>
</svg>