<?xml version="1.0" encoding="UTF-8"?>
<!-- Generator: Adobe Illustrator 22.1.0, SVG Export Plug-In . SVG Version: 6.00 Build 0)  -->
<svg id="Layer_1" width="783.29999" height="159.61612" version="1.1" viewBox="0 0 783.29997 159.61612" xml:space="preserve" xmlns="http://www.w3.org/2000/svg">
<g id="g850" transform="translate(-29.3,-19.7)"><g>
	<path id="path824" d="m665.1 119.1c-0.5 1.5-1.1 3.9-0.7 6.1 0.1 0.6 0.4 0.9 0.2 1.5-0.5 2.4-0.7 4.6 1.4 7.3 0.8 1.1 1 2.2 1.7 3.3 0.6 0.8 0.8 2.2 1.5 2.7 0.9 0.9 1.5 2 2.4 2.8 0.9 1.2 1.5 1.8 2.8 2.6 1.8 1.3 2.8 1.9 4.6 3.1 1.4 0.9 0.8 1.8 2.6 2.4 0.6 0.2 1.9 0.8 2.6 1.1 0.7 0.1 1.8 0.9 2.6 1.5 2.4 1.8 4.4 1.8 7.7 2.5 2.1 0.6 4.1 1.7 6.2 2.1 1.5 0.4 2.4 0 3.8 0.2 1.1 0.1 1.7 0.6 2.6 0.8 2.4 0.4 3.3 0.4 5.2 0 2.7 0.5 5.1 0.7 7.9 0.2 1.3-0.2 2.8-0.1 3.7 0 1.7 0.1 3.1-0.3 4.6-0.6 3-0.4 3.9-0.1 6.4-0.5 1.9-0.2 4.7-1.3 6.8-1.8 6.7-1.8 9.1-1.4 14.7-3.4 1.7-0.6 5.1-1.8 6.4-2.5 1.5-0.8 3.8-1.2 5.4-1.8 2.5-0.7 4.5-2.4 7.2-2.1-0.2 0.9-0.5 1.1-1.3 1.3-0.1 2.5-1.4 3.1-3.3 3.9-1.1 0.5-2.1 1.8-3.1 2.2-0.9 0.6-2 0.5-2.8 1.1-1.2 0.7-1.4 2.7-2.2 3.5-2 1.9-5.1 2.8-7.6 4.4-2.7 1.2-3.7 2.4-5.9 3.7-1.1 0.6-2.3 0.5-3.3 1.3-0.5 0.2-1.1 0.9-1.5 1.3-1.3 0.7-1.5 0.5-2.8 0.9-1.3 0.6-2.6 1.6-3.9 2.1-1.4 0.6-2.6 0.1-4.4 0.5-1.5 0.4-2.8 1.3-4.4 1.5-0.9 0.2-2 0-3.1 0.2-0.7 0.4-1.7 0.8-2.6 1.1-1.2 0.4-2-0.1-3.6 0.2-1.7 0.4-2.2 1.1-3.9 1.1-5.3-0.2-4.9 1.5-10.1 1.8-11.8 1.9-27.2-1.1-30.3-2.2-2.8-0.4-4.1-0.8-9.3-3.2-18.8-7.9-30.4-29.5-32.2-32.1-1.8-2.5-3.7-11.2-4.9-13.8-1.1-3.7-1.3-10.9-1.3-10.9-0.8-13.5 2.9-24.6 2.9-24.6s5.9-24.3 34.4-46.9c18.3-14.4 37.2-18.5 46.6-22 5-1.8 11.1-2.6 13.7-3.3 3.1 0 1.5 0.5 9.7 0.2 6.8 1.1-0.2 1.1 8 1.3 5.9 1.3 21.3 9.4 28.5 15.1 2.7 1.5 4.3 3.1 5 7 0.2 1.6 1.7 2.5 1.1 4.8-0.4 0.9-1.2 1.2-1.3 2.4-0.2 0.9 0.5 1.4 0.2 2.2-0.4 1.2-1.8 3.4-2.6 4.5-0.9 1.2-4 3.5-5.4 3.3-2.7-0.6-5.1-3.1-9.5-3.1-7.1 0-13.1-0.8-19.9 0.5-1.5 0.4-2.4 0.4-4.6 0.8-2.1 0.5-3.6 1.3-5.9 1.8-2 0.4-3.3 0.9-4.9 1.3-1.7 0.4-1.5 0.6-2.9 0.5-0.9-0.1-1.9 0.9-2.6 1.3-2.1 1.1-4.5 1.6-6.5 2.6-2.5 1.2-4.5 2.1-7.2 3.8-0.5 0.5-1.9 1.4-2.3 1.5-1.1 0.8-1.5 1-2.2 2-0.9 1.2-2.4 1.2-3.4 2.1-2.4 1.9-4.6 4.5-7 7.2-0.5 0.6-1.7 0.7-2.5 1.3-1.2 0.8-1.2 2-2.4 2.8-1.9 1.4-3 2.5-4.4 4.4 0.2 0.1-12.1 13.6-15.1 27.8" fill="#e73232"/>
	<path id="path826" d="m552.3 105.4c0-8 58.4-14.5 130.1-14.5 71.9 0 130.2 6.5 130.2 14.5 0 7.9-58.4 14.5-130.2 14.5-71.7 0-130.1-6.6-130.1-14.5" fill="#0062ad"/>
	<path id="path828" d="m781.4 131.1c0-5.5 4.5-10 10.1-10s10.1 4.5 10.1 10-4.5 10-10.1 10-10.1-4.5-10.1-10" fill="#0062ad"/>
	
	
	
	
	
	
	
	
	
	</g><g id="g1118"><rect id="rect830" x="31.1" y="74.800003" width="20.5" height="56"/><path id="path832" d="m231.8 74.8h-20.5v56h20.5v-18.9c0-6.3-0.8-16.9 12.4-19.3 2.8-0.5 8.8-0.5 10.9 0.9v-19.6c-2.5-0.8-5.7-1.2-8.5-0.9-10.5 1-14.9 8.4-14.9 8.4v-6.6"/><rect id="rect834" x="413.70001" y="74.699997" width="20.700001" height="82.099998"/><path id="path836" d="m41.4 44.9c6.7 0 12.1 5.4 12.1 12.1s-5.4 12.1-12.1 12.1-12.1-5.4-12.1-12.1c0-6.6 5.4-12.1 12.1-12.1"/><path id="path838" d="m84.3 102.8c0-6.7 5.2-12.1 11.7-12.1 6.4 0 11.7 5.4 11.7 12.1s-5.2 12.1-11.7 12.1c-6.4 0-11.7-5.4-11.7-12.1m-19.6 28h20.5v-6.5c3.8 4.6 11 7.9 17.7 7.9 19.4 0 27.1-13.6 27.1-29 0-14.8-8.5-30.2-27.1-30.2-7.1 0-13.5 3.2-17.7 7.5v-36.5h-20.5z" clip-rule="evenodd" fill-rule="evenodd"/><path id="path840" d="m319.3 107c-3.9 3.8-9.2 6.2-15 6.2-11.7 0-21.4-9.7-21.4-21.4s9.7-21.4 21.4-21.4c5.5 0 11.6 2.7 15.3 6.7l15.9-15.8c-6.8-9.3-19.4-13.1-31.2-13.1-24 0-43.6 19.6-43.6 43.6s19.6 43.6 43.6 43.6c11.7 0 22.3-4.6 30.2-12.2l-15.2-16.2"/><path id="path842" d="m424.1 44.9c6.7 0 12.1 5.4 12.1 12.1s-5.4 12.1-12.1 12.1-12.1-5.4-12.1-12.1c-0.1-6.6 5.4-12.1 12.1-12.1"/><g clip-rule="evenodd" fill-rule="evenodd"><path id="path844" d="m381.8 103.1c0-6.5-5.4-11.8-12-11.8s-12 5.3-12 11.8 5.4 11.8 12 11.8 12-5.3 12-11.8m19.8 27.7h-20.5v-6.5c-3.9 4.6-11.2 7.9-18.1 7.9-19.8 0-28.6-13.6-28.6-29.1 0-14.8 9.6-30.2 28.6-30.2 7.2 0 14.4 3 18.1 8v-6.1h20.5z"/><path id="path846" d="m490.2 103.1c0-6.5-5.4-11.8-12-11.8s-12 5.3-12 11.8 5.4 11.8 12 11.8 12-5.3 12-11.8m19.8 27.7h-20.5v-6.5c-3.9 4.6-11.2 7.9-18.1 7.9-19.8 0-28.6-13.6-28.6-29.1 0-14.8 9.6-30.2 28.6-30.2 7.2 0 14.4 3 18.1 8v-6.1h20.5z"/><path id="path848" d="m157.1 94.4c-0.2 0.3 1.2-9.3 12-9.3 10 0 11.3 9.3 11.3 9.3h-23.3m44.8 12.1v-2.7c0-17.1-10.2-30.9-31.7-30.9-21.4 0-34 13.6-34 30.7s12.3 28.5 32.9 28.5c13.8 0 30.2-7.4 31.5-19.1h-21.9c0.8-0.2-3.8 5.3-9.6 5.1-6.6-0.2-11.9-4.4-11.9-11.7h44.7z"/></g></g>
</g>
</svg>
