<svg version="1.2" xmlns="http://www.w3.org/2000/svg" viewBox="0 0 784 160" width="784" height="160">
	<title>Ibercaja-logo-svg</title>
	<style>
		.s0 { fill: #e73232 } 
		.s1 { fill: #0062ad } 
		.s2 { fill: #000000 } 
	</style>
	<g id="g850">
		<filter id="f0">
			<feFlood flood-color="#ffffff" flood-opacity="1" />
			<feBlend mode="normal" in2="SourceGraphic"/>
			<feComposite in2="SourceAlpha" operator="in" />
		</filter>
		<g id="Layer" filter="url(#f0)">
			<path id="path824" class="s0" d="m635.8 99.4c-0.5 1.5-1.1 3.9-0.7 6.1 0.1 0.6 0.4 0.9 0.2 1.5-0.5 2.4-0.7 4.6 1.4 7.3 0.8 1.1 1 2.2 1.7 3.3 0.6 0.8 0.8 2.2 1.5 2.7 0.9 0.9 1.5 2 2.4 2.8 0.9 1.2 1.5 1.8 2.8 2.6 1.8 1.3 2.8 1.9 4.6 3.1 1.4 0.9 0.8 1.8 2.6 2.4 0.6 0.2 1.9 0.8 2.6 1.1 0.7 0.1 1.8 0.9 2.6 1.5 2.4 1.8 4.4 1.8 7.7 2.5 2.1 0.6 4.1 1.7 6.2 2.1 1.5 0.4 2.4 0 3.8 0.2 1.1 0.1 1.7 0.6 2.6 0.8 2.4 0.4 3.3 0.4 5.2 0 2.7 0.5 5.1 0.7 7.9 0.2 1.3-0.2 2.8-0.1 3.7 0 1.7 0.1 3.1-0.3 4.6-0.6 3-0.4 3.9-0.1 6.4-0.5 1.9-0.2 4.7-1.3 6.8-1.8 6.7-1.8 9.1-1.4 14.7-3.4 1.7-0.6 5.1-1.8 6.4-2.5 1.5-0.8 3.8-1.2 5.4-1.8 2.5-0.7 4.5-2.4 7.2-2.1-0.2 0.9-0.5 1.1-1.3 1.3-0.1 2.5-1.4 3.1-3.3 3.9-1.1 0.5-2.1 1.8-3.1 2.2-0.9 0.6-2 0.5-2.8 1.1-1.2 0.7-1.4 2.7-2.2 3.5-2 1.9-5.1 2.8-7.6 4.4-2.7 1.2-3.7 2.4-5.9 3.7-1.1 0.6-2.3 0.5-3.3 1.3-0.5 0.2-1.1 0.9-1.5 1.3-1.3 0.7-1.5 0.5-2.8 0.9-1.3 0.6-2.6 1.6-3.9 2.1-1.4 0.6-2.6 0.1-4.4 0.5-1.5 0.4-2.8 1.3-4.4 1.5-0.9 0.2-2 0-3.1 0.2-0.7 0.4-1.7 0.8-2.6 1.1-1.2 0.4-2-0.1-3.6 0.2-1.7 0.4-2.2 1.1-3.9 1.1-5.3-0.2-4.9 1.5-10.1 1.8-11.8 1.9-27.2-1.1-30.3-2.2-2.8-0.4-4.1-0.8-9.3-3.2-18.8-7.9-30.4-29.5-32.2-32.1-1.8-2.5-3.7-11.2-4.9-13.8-1.1-3.7-1.3-10.9-1.3-10.9-0.8-13.5 2.9-24.6 2.9-24.6 0 0 5.9-24.3 34.4-46.9 18.3-14.4 37.2-18.5 46.6-22 5-1.8 11.1-2.6 13.7-3.3 3.1 0 1.5 0.5 9.7 0.2 6.8 1.1-0.2 1.1 8 1.3 5.9 1.3 21.3 9.4 28.5 15.1 2.7 1.5 4.3 3.1 5 7 0.2 1.6 1.7 2.5 1.1 4.8-0.4 0.9-1.2 1.2-1.3 2.4-0.2 0.9 0.5 1.4 0.2 2.2-0.4 1.2-1.8 3.4-2.6 4.5-0.9 1.2-4 3.5-5.4 3.3-2.7-0.6-5.1-3.1-9.5-3.1-7.1 0-13.1-0.8-19.9 0.5-1.5 0.4-2.4 0.4-4.6 0.8-2.1 0.5-3.6 1.3-5.9 1.8-2 0.4-3.3 0.9-4.9 1.3-1.7 0.4-1.5 0.6-2.9 0.5-0.9-0.1-1.9 0.9-2.6 1.3-2.1 1.1-4.5 1.6-6.5 2.6-2.5 1.2-4.5 2.1-7.2 3.8-0.5 0.5-1.9 1.4-2.3 1.5-1.1 0.8-1.5 1-2.2 2-0.9 1.2-2.4 1.2-3.4 2.1-2.4 1.9-4.6 4.5-7 7.2-0.5 0.6-1.7 0.7-2.5 1.3-1.2 0.8-1.2 2-2.4 2.8-1.9 1.4-3 2.5-4.4 4.4 0.2 0.1-12.1 13.6-15.1 27.8z"/>
			<path id="path826" class="s1" d="m523 85.7c0-8 58.4-14.5 130.1-14.5 71.9 0 130.2 6.5 130.2 14.5 0 7.9-58.4 14.5-130.2 14.5-71.7 0-130.1-6.6-130.1-14.5z"/>
			<path id="path828" class="s1" d="m752.1 111.4c0-5.5 4.5-10 10.1-10 5.6 0 10.1 4.5 10.1 10 0 5.5-4.5 10-10.1 10-5.6 0-10.1-4.5-10.1-10z"/>
		</g>
		<filter id="f1">
			<feFlood flood-color="#ffffff" flood-opacity="1" />
			<feBlend mode="normal" in2="SourceGraphic"/>
			<feComposite in2="SourceAlpha" operator="in" />
		</filter>
		<g id="g1118" filter="url(#f1)">
			<path id="rect830" class="s2" d="m1.8 55.1h20.5v56h-20.5z"/>
			<path id="path832" class="s2" d="m202.4 55.1v6.6c0 0 4.4-7.4 14.9-8.4 2.8-0.3 6 0.1 8.5 0.9v19.6c-2.1-1.4-8.1-1.4-10.9-0.9-13.2 2.4-12.4 13-12.4 19.3v18.9h-20.5v-56h20.5"/>
			<path id="rect834" class="s2" d="m384.4 55h20.7v82.1h-20.7z"/>
			<path id="path836" class="s2" d="m12.1 25.2c6.7 0 12.1 5.4 12.1 12.1 0 6.7-5.4 12.1-12.1 12.1-6.7 0-12.1-5.4-12.1-12.1 0-6.6 5.4-12.1 12.1-12.1z"/>
			<path id="path838" fill-rule="evenodd" class="s2" d="m35.4 24.3h20.5v36.5c4.2-4.3 10.6-7.5 17.7-7.5 18.6 0 27.1 15.4 27.1 30.2 0 15.4-7.7 29-27.1 29-6.7 0-13.9-3.3-17.7-7.9v6.5h-20.5zm31.3 70.9c6.5 0 11.7-5.4 11.7-12.1 0-6.7-5.3-12.1-11.7-12.1-6.5 0-11.7 5.4-11.7 12.1 0 6.7 5.3 12.1 11.7 12.1z"/>
			<path id="path840" class="s2" d="m305.2 103.5c-7.9 7.6-18.5 12.2-30.2 12.2-24 0-43.6-19.6-43.6-43.6 0-24 19.6-43.6 43.6-43.6 11.8 0 24.4 3.8 31.2 13.1l-15.9 15.8c-3.7-4-9.8-6.7-15.3-6.7-11.7 0-21.4 9.7-21.4 21.4 0 11.7 9.7 21.4 21.4 21.4 5.8 0 11.1-2.4 15-6.2z"/>
			<path id="path842" class="s2" d="m394.8 25.2c6.7 0 12.1 5.4 12.1 12.1 0 6.7-5.4 12.1-12.1 12.1-6.7 0-12.1-5.4-12.1-12.1-0.1-6.6 5.4-12.1 12.1-12.1z"/>
			<g id="Layer">
				<path id="path844" fill-rule="evenodd" class="s2" d="m372.3 111.1h-20.5v-6.5c-3.9 4.6-11.2 7.9-18.1 7.9-19.8 0-28.6-13.6-28.6-29.1 0-14.8 9.6-30.2 28.6-30.2 7.2 0 14.4 3 18.1 8v-6.1h20.5zm-19.8-27.7c0-6.5-5.4-11.8-12-11.8-6.6 0-12 5.3-12 11.8 0 6.5 5.4 11.8 12 11.8 6.6 0 12-5.3 12-11.8z"/>
				<path id="path846" fill-rule="evenodd" class="s2" d="m480.7 111.1h-20.5v-6.5c-3.9 4.6-11.2 7.9-18.1 7.9-19.8 0-28.6-13.6-28.6-29.1 0-14.8 9.6-30.2 28.6-30.2 7.2 0 14.4 3 18.1 8v-6.1h20.5zm-19.8-27.7c0-6.5-5.4-11.8-12-11.8-6.6 0-12 5.3-12 11.8 0 6.5 5.4 11.8 12 11.8 6.6 0 12-5.3 12-11.8z"/>
				<path id="path848" fill-rule="evenodd" class="s2" d="m172.6 86.7h-44.7c0 7.3 5.3 11.5 11.9 11.7 5.6 0.2 10.1-4.9 9.7-5.1h21.8c-1.3 11.7-17.7 19.1-31.5 19.1-20.6 0-32.9-11.4-32.9-28.5 0-17.1 12.6-30.7 34-30.7 21.5 0 31.7 13.8 31.7 30.9zm-23.2 6.6q0 0 0.1 0zm1.7-18.6c0 0-1.3-9.3-11.3-9.3-10.8 0-12.2 9.6-12 9.3z"/>
			</g>
		</g>
	</g>
</svg>