<svg version="1.2" xmlns="http://www.w3.org/2000/svg" viewBox="0 0 239 42" width="239" height="42">
	<title>santander-logo-svg</title>
	<style>
		.s0 { fill: #ffffff } 
	</style>
	<g id="g8">
		<path id="path6" fill-rule="evenodd" class="s0" d="m43.8 29.6c0 6.6-9.8 11.9-21.9 11.9-12.1 0-21.9-5.3-21.9-11.9 0-4.7 5.1-8.8 12.4-10.7 0 1.8 0.4 3.6 1.3 5.2l6.9 11.9c0.5 0.9 0.9 1.9 1.1 2.9l0.3-0.5c1.7-2.9 1.7-6.6 0-9.5l-5.5-9.5c-1.7-3-1.7-6.6 0-9.5l0.3-0.5c0.2 1 0.6 2 1.1 2.9l3.2 5.6 5 8.7c0.5 0.9 0.9 1.9 1.1 2.9l0.3-0.5c1.7-2.9 1.7-6.6 0-9.5l-5.5-9.5c-1.7-2.9-1.7-6.6 0-9.5l0.3-0.5c0.2 1 0.6 2 1.1 2.9l6.8 11.9c0.8 1.3 1.2 2.8 1.3 4.3 7.4 1.9 12.4 6 12.3 10.5zm8.4 9.8c0.1-1.7 0.3-2.8 0.8-4.2 2.3 1.1 5.3 1.6 7.5 1.6 3.8 0 6-1.2 6-3.7 0-2.4-1.6-3.5-5.4-5.2l-2.1-0.8c-3.9-1.7-6.5-3.9-6.5-8.2 0-4.7 3.3-7.7 9.9-7.7q4 0 7.5 1.2c-0.1 1.6-0.4 2.9-0.8 4.1-2.2-0.8-4.9-1.2-6.8-1.2-3.6 0-5.2 1.4-5.2 3.6 0 2.1 1.6 3.4 4.5 4.6l2.2 0.9c5.2 2.2 7.4 4.6 7.4 8.6 0 4.7-3.6 8-10.6 8-3.3 0-6.1-0.5-8.4-1.6zm41.1-19.7v20.6h-4.2l-0.2-2.5c-1.2 1.8-2.9 3-5.8 3-5.4 0-9.1-4-9.1-10.9 0-7.2 3.9-11.4 11.5-11.4 3 0.1 5.5 0.4 7.8 1.2zm-4.5 15.9v-12.9c-0.9-0.2-2-0.2-3.3-0.2-4.7 0-6.9 2.9-6.9 7.5 0 4.2 1.7 7.2 5.7 7.2 1.9-0.1 3.3-0.7 4.5-1.6zm27.7-9.1v13.8h-4.5v-13c0-3.3-1.1-4.8-5.6-4.8q-1.7 0-3.6 0.3v17.5h-4.5v-20.6c2.9-0.7 6.1-1.2 8.2-1.2 7.6 0.1 10 3 10 8zm12.6 10.5c1.3 0 2.6-0.2 3.5-0.6-0.1 1.2-0.3 2.6-0.5 3.8-1.2 0.5-2.6 0.7-3.8 0.7-4.4 0-7.2-2-7.2-7v-21.7c1.4-0.5 3.1-0.7 4.5-0.7v7.8h7.2c-0.1 1.4-0.2 2.7-0.4 3.9h-6.8v10.1c0 2.6 1.3 3.7 3.5 3.7zm24.3-17.3v20.6h-4.2l-0.2-2.5c-1.2 1.8-2.9 3-5.8 3-5.4 0-9.1-4-9.1-10.9 0-7.2 3.9-11.4 11.5-11.4 3 0.1 5.4 0.4 7.8 1.2zm-4.6 15.9v-12.9c-0.9-0.2-2-0.2-3.3-0.2-4.7 0-6.9 2.9-6.9 7.5 0 4.2 1.7 7.2 5.7 7.2 1.9-0.1 3.4-0.7 4.5-1.6zm27.8-9.1v13.8h-4.6v-13c0-3.3-1.1-4.8-5.6-4.8q-1.7 0-3.6 0.3v17.5h-4.5v-20.6c2.9-0.7 6.1-1.2 8.2-1.2 7.6 0.1 10.1 3 10.1 8zm22.9-15v28.8h-4.2l-0.2-2.6c-1.2 1.9-2.9 3.1-5.9 3.1-5.4 0-9.1-4-9.1-10.9 0-7.2 3.9-11.4 11.5-11.4 1.2 0 2.3 0.1 3.4 0.3v-6.8c1.4-0.4 3-0.5 4.5-0.5zm-4.5 24.1v-12.7c-1.2-0.2-2.4-0.4-3.6-0.4-4.5 0-6.6 2.8-6.6 7.5 0 4.2 1.7 7.2 5.7 7.2 1.8-0.1 3.3-0.7 4.5-1.6zm27.3-4.1h-14.5c0.6 3.7 2.7 5.4 6.8 5.4 2.5 0 5-0.5 7.2-1.6-0.2 1.2-0.4 2.8-0.7 4.1-2.1 0.9-4.2 1.3-6.7 1.3-7.6 0-11.2-4.2-11.2-11.2 0-6.1 2.8-11 10-11 6.5 0 9.3 4.2 9.3 9.4 0 1.4 0 2.4-0.2 3.6zm-14.5-3.8h10.2c0-3.4-1.8-5.4-4.9-5.4-3.3 0.1-5 1.9-5.3 5.4zm30.4-8.9c0 1.4-0.2 3-0.4 3.9-1.1-0.1-2.1-0.2-3.4-0.2-1.1 0-2.2 0.1-3.3 0.2v17.6h-4.5v-20.6c1.9-0.7 5.2-1.2 7.7-1.2 1.3 0.1 2.9 0.1 3.9 0.3z"/>
	</g>
</svg>